<?xml version="1.0" standalone="no"?>
<!DOCTYPE svg PUBLIC "-//W3C//DTD SVG 20010904//EN"
 "http://www.w3.org/TR/2001/REC-SVG-20010904/DTD/svg10.dtd">
<svg version="1.0" xmlns="http://www.w3.org/2000/svg"
 width="512.000000pt" height="512.000000pt" viewBox="0 0 512.000000 512.000000"
 preserveAspectRatio="xMidYMid meet">
<metadata>
Created by potrace 1.14, written by Peter Selinger 2001-2017
</metadata>
<g transform="translate(0.000000,512.000000) scale(0.100000,-0.100000)"
fill="#000000" stroke="none">
<path d="M848 4890 c-384 -79 -647 -423 -625 -815 12 -201 90 -371 239 -517
37 -37 68 -68 68 -70 0 -2 -24 -4 -54 -4 -225 -6 -338 -288 -180 -448 59 -60
117 -81 229 -81 l90 0 18 -44 c47 -116 64 -278 41 -405 -13 -74 -38 -162 -52
-183 -5 -8 -43 -13 -103 -15 -79 -3 -104 -8 -152 -31 -117 -58 -175 -199 -132
-318 9 -24 18 -51 21 -59 3 -10 -10 -23 -40 -39 -54 -28 -136 -112 -164 -167
-50 -99 -52 -114 -52 -624 0 -514 1 -524 55 -630 28 -55 103 -132 163 -167 24
-15 73 -34 108 -44 61 -17 192 -18 2317 -18 2204 1 2253 1 2303 20 60 23 115
72 146 132 32 59 32 175 1 232 -29 52 -60 85 -105 113 -46 29 -63 32 -171 36
-49 2 -92 7 -97 12 -5 5 -21 50 -35 99 -44 153 -38 336 16 481 l20 54 82 1
c120 1 145 8 213 57 27 20 52 52 72 92 58 115 32 237 -68 323 -66 56 -102 61
-412 62 -153 0 -278 1 -278 1 0 1 16 28 35 60 64 105 63 100 64 639 1 527 1
527 -52 631 -30 59 -103 135 -160 168 -81 47 -133 58 -285 61 -79 2 -146 6
-149 8 -2 3 1 15 7 28 7 12 13 52 13 88 0 80 -31 150 -89 201 -51 44 -92 60
-183 68 l-76 7 -22 85 c-17 65 -21 106 -18 175 4 86 26 189 46 210 5 5 33 10
62 11 120 4 206 55 253 150 74 152 -5 332 -169 379 -45 12 -233 14 -1362 14
-1220 -1 -1316 -2 -1397 -19z m2753 -153 c71 -48 69 -159 -4 -202 -31 -19 -60
-19 -747 -20 -548 -1 -720 -4 -737 -13 -26 -14 -38 -51 -29 -87 12 -49 11 -49
631 -50 562 0 580 -1 577 -19 -2 -11 -10 -51 -17 -90 -19 -100 -9 -283 20
-358 7 -17 -53 -18 -1166 -18 l-1174 0 -50 24 c-52 24 -93 64 -122 120 -22 42
-22 150 1 197 30 63 97 120 159 136 12 3 212 6 444 7 407 1 423 2 442 21 33
34 36 68 8 101 l-25 29 -413 0 c-228 0 -436 -3 -464 -8 -192 -34 -330 -209
-320 -404 7 -147 91 -270 230 -339 l60 -29 1324 -3 c1199 -2 1327 -4 1358 -19
44 -20 64 -51 66 -101 1 -44 -20 -83 -59 -109 -25 -16 -116 -17 -1323 -17
-713 0 -1321 3 -1352 7 -101 11 -206 56 -295 123 -437 333 -279 1018 260 1128
47 10 358 13 1376 12 1237 -1 1317 -2 1341 -19z m507 -1426 c69 -31 137 -106
157 -174 23 -78 23 -948 0 -1018 -22 -66 -92 -141 -157 -170 l-53 -23 -980 -1
c-539 -1 -984 2 -990 6 -8 6 -12 183 -6 220 1 3 414 6 919 6 l919 0 39 22 c22
12 51 38 64 58 l25 37 0 356 0 356 -25 37 c-13 20 -42 46 -64 58 l-39 22
-1716 -1 c-1047 0 -1728 3 -1747 9 -52 16 -79 53 -79 109 0 53 20 84 67 104
19 8 503 11 1820 11 l1793 -1 53 -23z m-224 -364 c14 -6 16 -45 16 -316 0
-187 -4 -312 -10 -316 -11 -7 -1800 -8 -1807 -1 -8 8 -9 216 -1 229 5 9 86 12
279 12 l271 0 24 28 c28 33 26 70 -6 101 -20 21 -27 21 -913 22 -490 1 -895 2
-899 3 -5 0 -8 11 -8 24 0 22 -33 168 -45 199 -6 15 2 17 67 20 140 6 3017 1
3032 -5z m-2587 -514 l1 -123 -56 0 c-187 -2 -455 0 -459 3 -2 2 4 23 12 47 8
24 20 75 26 114 6 39 15 73 19 76 5 3 109 5 232 5 l223 0 2 -122z m629 -531
c0 -359 -3 -651 -6 -650 -4 2 -51 45 -105 96 -135 128 -119 131 -322 -64 l-43
-42 0 152 c-1 181 -1 1040 0 1111 l0 50 238 0 237 0 1 -653z m-629 143 c1 -60
-2 -112 -7 -115 -7 -4 -754 -5 -827 -1 -31 2 -81 47 -88 81 -14 62 26 134 78
142 12 2 206 4 432 3 l410 0 2 -110z m-1 -387 l2 -118 -389 0 c-307 0 -397 -3
-422 -14 -42 -17 -84 -67 -96 -114 -13 -52 -8 -680 6 -712 15 -34 47 -66 86
-87 30 -16 179 -17 2217 -17 2069 -1 2187 -2 2213 -19 78 -51 71 -159 -13
-202 -20 -10 -483 -12 -2280 -11 l-2255 1 -50 27 c-63 33 -108 78 -138 137
-22 46 -22 48 -22 541 l0 495 27 51 c28 54 83 108 127 126 73 30 118 33 547
33 l439 0 1 -117z m3612 103 c29 -16 62 -69 62 -99 0 -40 -30 -89 -63 -106
-28 -13 -120 -15 -730 -16 -430 0 -706 -4 -717 -10 -10 -5 -23 -23 -29 -40
-13 -38 1 -73 36 -89 16 -8 188 -11 558 -11 294 0 535 -2 535 -4 0 -3 -5 -17
-11 -33 -13 -32 -14 -41 -34 -148 -23 -130 -9 -289 40 -445 4 -13 -222 -15
-2000 -15 -1102 1 -2008 4 -2012 9 -8 8 -15 575 -7 614 l4 22 379 0 380 0 -1
-142 c0 -179 9 -206 74 -222 42 -10 85 14 168 95 41 39 91 87 111 106 l35 34
24 -21 c13 -11 63 -58 110 -104 48 -46 101 -91 118 -100 40 -21 79 -14 111 19
26 25 26 28 26 180 l0 155 532 0 c380 0 539 3 557 12 23 10 38 33 41 63 2 18
-24 62 -40 69 -9 3 -257 6 -551 6 -294 0 -534 3 -535 8 -5 54 -2 223 4 225 4
1 636 2 1405 2 1111 -1 1402 -3 1420 -14z"/>
</g>
</svg>
